# xmcd CD database file
#
# Track frame offsets:
#	180
#	23135
#	35939
#	61676
#	85010
#	104653
#	131394
#	172456
#	193491
#
# Disc length: 2880 seconds
#
# Revision: 2
# Processed by: cddbd v1.5PL3 Copyright (c) Steve Scherf et al.
# Submitted via: CDex 1.51
#
DISCID=820b3e09
DTITLE=Peppermint Harris - Texas On My Mind
DYEAR=1995
DGENRE=Blues
TTITLE0=Penthouse in the Ghetto
TTITLE1=Baby, Don't Tear My Clothes
TTITLE2=Ain't No Business We Can Do
TTITLE3=I'm Doin' Bad
TTITLE4=Black Widow Spider
TTITLE5=Had to Take a Chance on You
TTITLE6=Genuine Canine
TTITLE7=Texas on My Mind
TTITLE8=Always on the Go
EXTD=YEAR: 1995
EXTT0=
EXTT1=
EXTT2=
EXTT3=
EXTT4=
EXTT5=
EXTT6=
EXTT7=
EXTT8=
PLAYORDER=
